<svg width="35" height="35" viewBox="0 0 35 35" fill="none" xmlns="http://www.w3.org/2000/svg">
<g clip-path="url(#clip0)">
<path d="M12.6875 21.625H10.9375C10.696 21.625 10.5 21.429 10.5 21.1875C10.5 20.946 10.696 20.75 10.9375 20.75H12.6875C12.929 20.75 13.125 20.946 13.125 21.1875C13.125 21.429 12.929 21.625 12.6875 21.625Z" fill="#ED9737"/>
<path d="M26.9062 21.625H25.8125C25.571 21.625 25.375 21.429 25.375 21.1875C25.375 20.946 25.571 20.75 25.8125 20.75H26.5431L27.1329 17.607C27.125 15.9988 25.7512 14.625 24.0625 14.625H21.1899L19.7977 20.75H22.3125C22.554 20.75 22.75 20.946 22.75 21.1875C22.75 21.429 22.554 21.625 22.3125 21.625H19.25C19.117 21.625 18.991 21.5646 18.9079 21.4605C18.8247 21.3573 18.7932 21.2208 18.823 21.0913L20.4137 14.0913C20.4592 13.8909 20.636 13.75 20.8407 13.75H24.0625C26.2334 13.75 28 15.5166 28 17.6875L27.3359 21.268C27.2974 21.4754 27.1171 21.625 26.9062 21.625Z" fill="#ED9737"/>
<path d="M24.0625 23.375C22.8568 23.375 21.875 22.3941 21.875 21.1875C21.875 19.9809 22.8568 19 24.0625 19C25.2683 19 26.25 19.9809 26.25 21.1875C26.25 22.3941 25.2683 23.375 24.0625 23.375ZM24.0625 19.875C23.3389 19.875 22.75 20.4639 22.75 21.1875C22.75 21.9111 23.3389 22.5 24.0625 22.5C24.7861 22.5 25.375 21.9111 25.375 21.1875C25.375 20.4639 24.7861 19.875 24.0625 19.875Z" fill="#ED9737"/>
<path d="M14.4375 23.375C13.2318 23.375 12.25 22.3941 12.25 21.1875C12.25 19.9809 13.2318 19 14.4375 19C15.6433 19 16.625 19.9809 16.625 21.1875C16.625 22.3941 15.6433 23.375 14.4375 23.375ZM14.4375 19.875C13.7139 19.875 13.125 20.4639 13.125 21.1875C13.125 21.9111 13.7139 22.5 14.4375 22.5C15.1611 22.5 15.75 21.9111 15.75 21.1875C15.75 20.4639 15.1611 19.875 14.4375 19.875Z" fill="#ED9737"/>
<path d="M12.6875 13.75H9.1875C8.946 13.75 8.75 13.554 8.75 13.3125C8.75 13.071 8.946 12.875 9.1875 12.875H12.6875C12.929 12.875 13.125 13.071 13.125 13.3125C13.125 13.554 12.929 13.75 12.6875 13.75Z" fill="#ED9737"/>
<path d="M12.6875 16.375H8.3125C8.071 16.375 7.875 16.179 7.875 15.9375C7.875 15.696 8.071 15.5 8.3125 15.5H12.6875C12.929 15.5 13.125 15.696 13.125 15.9375C13.125 16.179 12.929 16.375 12.6875 16.375Z" fill="#ED9737"/>
<path d="M12.6875 19H7.4375C7.196 19 7 18.804 7 18.5625C7 18.321 7.196 18.125 7.4375 18.125H12.6875C12.929 18.125 13.125 18.321 13.125 18.5625C13.125 18.804 12.929 19 12.6875 19Z" fill="#ED9737"/>
<path d="M19.25 21.625H16.1875C15.946 21.625 15.75 21.429 15.75 21.1875C15.75 20.946 15.946 20.75 16.1875 20.75H18.9009L20.8889 12H10.9375C10.696 12 10.5 11.804 10.5 11.5625C10.5 11.321 10.696 11.125 10.9375 11.125H21.4375C21.5705 11.125 21.6965 11.1854 21.7796 11.2895C21.8627 11.3928 21.8942 11.5293 21.8645 11.6588L19.677 21.2838C19.6315 21.4841 19.4539 21.625 19.25 21.625Z" fill="#ED9737"/>
</g>
<circle cx="17.5" cy="17.5" r="17" stroke="#ED9737"/>
<defs>
<clipPath id="clip0">
<rect width="21" height="21" fill="white" transform="translate(7 5)"/>
</clipPath>
</defs>
</svg>
