<svg width="65" height="65" viewBox="0 0 65 65" fill="none" xmlns="http://www.w3.org/2000/svg">
<g clip-path="url(#clip0)">
<path d="M26.0263 22.8276L22.7229 42.2132H28.0062L31.3123 22.8276H26.0263Z" fill="#ED9737"/>
<path d="M18.2932 22.8493L13.1186 36.0697L12.5669 34.0735C11.5464 31.6683 8.64929 28.2141 5.24805 26.0372L9.97962 42.2036L15.57 42.1941L23.8903 22.8452L18.2932 22.8493Z" fill="#ED9737"/>
<path d="M10.5611 24.2368C10.254 23.0559 9.36395 22.704 8.25919 22.6619H0.0679433L0 23.0478C6.37444 24.5942 10.5924 28.3202 12.3426 32.8004L10.5611 24.2368Z" fill="#ED9737"/>
<path d="M42.0201 26.544C43.7486 26.5169 45.0015 26.8946 45.9744 27.286L46.4514 27.5102L47.1661 23.3086C46.1198 22.9159 44.4797 22.4946 42.4332 22.4946C37.2125 22.4946 33.5326 25.124 33.5041 28.8922C33.4701 31.6765 36.1254 33.231 38.131 34.1591C40.1897 35.1103 40.88 35.715 40.8705 36.5643C40.8542 37.862 39.229 38.4572 37.7112 38.4572C35.5954 38.4572 34.4716 38.1651 32.7363 37.4422L32.0556 37.1323L31.3123 41.4712C32.5488 42.0134 34.8304 42.4795 37.1989 42.5039C42.7526 42.5039 46.3617 39.9058 46.3997 35.8795C46.4229 33.6767 45.0137 31.9958 41.9603 30.6166C40.1123 29.717 38.9817 29.1191 38.9926 28.2114C38.9926 27.4056 39.9519 26.544 42.0201 26.544Z" fill="#ED9737"/>
<path d="M60.725 22.8494H56.643C55.3752 22.8494 54.4321 23.1945 53.875 24.4583L46.0303 42.2241H51.5785C51.5785 42.2241 52.4835 39.8352 52.6887 39.312C53.2961 39.312 58.6867 39.3202 59.4545 39.3202C59.6121 39.9969 60.0986 42.2241 60.0986 42.2241H65L60.725 22.8494ZM54.2093 35.3441C54.6441 34.2312 56.3142 29.9263 56.3142 29.9263C56.2856 29.9793 56.7449 28.8053 57.0181 28.0756L57.3741 29.747C57.3741 29.747 58.3864 34.3753 58.5984 35.3441H54.2093Z" fill="#ED9737"/>
</g>
<defs>
<clipPath id="clip0">
<rect width="65" height="65" fill="white"/>
</clipPath>
</defs>
</svg>
