<svg width="54" height="54" viewBox="0 0 54 54" fill="none" xmlns="http://www.w3.org/2000/svg">
<g clip-path="url(#clip0)">
<path d="M12.6192 10.9491L34.1465 5.07309L33.0064 2.76877C32.2606 1.27096 30.4413 0.65243 28.9435 1.3983L9.67212 10.9491H12.6192Z" fill="#ED9737"/>
<path d="M40.829 5.24292C40.5622 5.24292 40.2954 5.2793 40.0285 5.35207L34.9712 6.73467L19.5261 10.9492H37.0572H44.6978L43.7518 7.48054C43.388 6.12827 42.1631 5.24292 40.829 5.24292Z" fill="#ED9737"/>
<path d="M47.8572 13.0715H47.1659H46.2259H45.286H38.1123H11.7521H8.29556H5.38484H4.84514H3.03807C2.07996 13.0715 1.22493 13.5142 0.667041 14.2116C0.412353 14.533 0.218304 14.9029 0.109152 15.3092C0.0424481 15.5638 0 15.8307 0 16.1035V16.4674V19.9239V49.8861C0 51.5599 1.35834 52.9181 3.032 52.9181H47.8511C49.5248 52.9181 50.8831 51.5599 50.8831 49.8861V41.4268H32.8912C30.0472 41.4268 27.7368 39.1165 27.7368 36.2724V33.4951V32.5552V31.6153V29.5293C27.7368 28.1345 28.2946 26.8672 29.1982 25.9394C29.9987 25.1147 31.072 24.5568 32.2727 24.4173C32.4728 24.3931 32.6789 24.3809 32.8851 24.3809H48.3605H49.3004H50.2403H50.8831V16.1035C50.8892 14.4299 49.5308 13.0715 47.8572 13.0715Z" fill="#ED9737"/>
<path d="M53.0115 27.2794C52.7083 27.0005 52.3506 26.7882 51.9503 26.6488C51.641 26.5457 51.3136 26.4851 50.968 26.4851H50.8891H50.8285H49.8886H46.4988H32.8911C31.2174 26.4851 29.8591 27.8434 29.8591 29.5171V31.027V31.9669V32.9068V36.2663C29.8591 37.94 31.2174 39.2983 32.8911 39.2983H50.8891H50.968C51.3136 39.2983 51.6411 39.2377 51.9503 39.1346C52.3506 39.0012 52.7083 38.7829 53.0115 38.5039C53.6179 37.9521 54 37.1516 54 36.2664V29.5171C54 28.6317 53.6179 27.8312 53.0115 27.2794ZM39.222 33.495C39.222 34.3319 38.5428 35.011 37.706 35.011H36.6993C35.8625 35.011 35.1833 34.3319 35.1833 33.495V32.4884C35.1833 32.0033 35.4077 31.5727 35.7655 31.2998C36.0262 31.0997 36.3477 30.9724 36.6993 30.9724H36.954H37.706C38.5428 30.9724 39.222 31.6515 39.222 32.4884V33.495Z" fill="#ED9737"/>
</g>
<defs>
<clipPath id="clip0">
<rect width="54" height="54" fill="white"/>
</clipPath>
</defs>
</svg>
