<svg width="35" height="35" viewBox="0 0 35 35" fill="none" xmlns="http://www.w3.org/2000/svg">
<circle cx="17.5" cy="17.5" r="17" stroke="#ED9737"/>
<path d="M20.885 19.1776L18.2359 17.1908V13.1436C18.2359 12.7367 17.907 12.4077 17.5 12.4077C17.0931 12.4077 16.7642 12.7367 16.7642 13.1436V17.5588C16.7642 17.7906 16.8731 18.0091 17.0585 18.1475L20.002 20.3551C20.1344 20.4544 20.289 20.5023 20.4427 20.5023C20.6672 20.5023 20.8879 20.4014 21.0322 20.2072C21.2766 19.8826 21.2103 19.4212 20.885 19.1776Z" fill="#ED9737"/>
<path d="M17.5 8C12.2614 8 8 12.2614 8 17.5C8 22.7386 12.2614 27 17.5 27C22.7386 27 27 22.7386 27 17.5C27 12.2614 22.7386 8 17.5 8ZM17.5 25.5283C13.0738 25.5283 9.47172 21.9262 9.47172 17.5C9.47172 13.0738 13.0738 9.47172 17.5 9.47172C21.927 9.47172 25.5283 13.0738 25.5283 17.5C25.5283 21.9262 21.9262 25.5283 17.5 25.5283Z" fill="#ED9737"/>
</svg>
