<svg width="38" height="38" viewBox="0 0 38 38" fill="none" xmlns="http://www.w3.org/2000/svg">
<circle cx="19" cy="19" r="19" fill="#F9E0D8"/>
<path d="M13.3147 28.9216C12.259 27.7219 11.2033 26.4743 10.5315 24.9868C9.85974 23.4032 9.66779 21.5798 10.0037 19.8524C10.3396 18.1249 11.1073 16.4934 12.211 15.1018C12.1151 16.3015 12.5469 17.5491 13.3627 18.4608C12.8828 16.1575 13.6506 13.6623 15.1861 11.8388C16.7216 10.0154 18.833 8.81573 21.0403 8C19.9366 9.15164 19.7927 10.9751 20.2245 12.5106C20.6564 14.0461 21.5681 15.3897 22.3839 16.7813C23.1996 18.1728 23.9674 19.6124 24.0154 21.1959C24.4473 20.3802 24.9271 19.5644 25.215 18.6527C25.5029 17.741 25.6469 16.7813 25.407 15.8696C26.2707 16.9252 26.7506 17.9809 26.9905 19.3245C27.2304 20.6681 27.1825 22.0596 27.0385 23.4032C26.8465 24.8908 26.4627 26.4263 25.6469 27.6739C24.6873 29.1615 23.1517 30.2171 21.4722 30.7929C18.4971 31.3208 15.57 30.8889 13.3147 28.9216Z" fill="#F3705A"/>
<path d="M16.9614 30.6971C20.8961 32.2326 24.7829 27.578 22.6236 23.9792C22.6236 23.9312 22.5756 23.9312 22.5756 23.8832C22.7676 25.8506 22.2877 27.2901 21.376 28.1059C21.8558 26.9543 21.5199 25.6107 20.9441 24.459C20.3683 23.3554 19.5525 22.3477 18.9287 21.292C18.3049 20.1884 17.8251 18.9407 18.113 17.6931C16.9613 18.5568 16.1456 19.8524 15.8097 21.244C15.4738 22.6356 15.6657 24.1711 16.2896 25.4667C15.5698 24.9389 15.042 24.0752 14.994 23.1634C14.2262 24.0752 13.7464 25.2748 13.7943 26.4744C13.7944 28.3458 15.2819 30.0253 16.9614 30.6971Z" fill="#FFD15C"/>
</svg>
