<svg width="45" height="45" viewBox="0 0 45 45" fill="none" xmlns="http://www.w3.org/2000/svg">
<g clip-path="url(#clip0)">
<path d="M2.81196 3.06205C-0.724292 6.73518 -0.000541911 10.6371 -0.000541911 22.4908C-0.000541911 32.3346 -1.71804 42.2027 7.27071 44.5258C10.0776 45.2477 34.9476 45.2477 37.7507 44.5221C41.4932 43.5564 44.5382 40.5208 44.9545 35.2277C45.0126 34.4889 45.0126 10.5058 44.9526 9.75206C44.5101 4.11393 41.0395 0.864554 36.4663 0.206429C35.4182 0.0545536 35.2082 0.00955355 29.8307 0.000178553C10.7563 0.00955355 6.57508 -0.839822 2.81196 3.06205Z" fill="url(#paint0_linear)"/>
<path d="M22.4959 5.88566C15.6878 5.88566 9.22278 5.28004 6.7534 11.6175C5.7334 14.235 5.88153 17.6344 5.88153 22.5019C5.88153 26.7732 5.74465 30.7875 6.7534 33.3844C9.21715 39.7257 15.7347 39.1182 22.4922 39.1182C29.0115 39.1182 35.7334 39.7969 38.2328 33.3844C39.2547 30.7407 39.1047 27.3919 39.1047 22.5019C39.1047 16.0107 39.4628 11.82 36.3147 8.67379C33.1272 5.48629 28.8165 5.88566 22.4884 5.88566H22.4959ZM21.0072 8.88004C35.2084 8.85754 37.0159 7.27879 36.0184 29.2107C35.664 36.9675 29.7578 36.1163 22.4978 36.1163C9.26028 36.1163 8.87965 35.7375 8.87965 22.4944C8.87965 9.09754 9.92965 8.88754 21.0072 8.87629V8.88004ZM31.3647 11.6382C30.264 11.6382 29.3715 12.5307 29.3715 13.6313C29.3715 14.7319 30.264 15.6244 31.3647 15.6244C32.4653 15.6244 33.3578 14.7319 33.3578 13.6313C33.3578 12.5307 32.4653 11.6382 31.3647 11.6382ZM22.4959 13.9688C17.784 13.9688 13.9647 17.79 13.9647 22.5019C13.9647 27.2138 17.784 31.0332 22.4959 31.0332C27.2078 31.0332 31.0253 27.2138 31.0253 22.5019C31.0253 17.79 27.2078 13.9688 22.4959 13.9688ZM22.4959 16.9632C29.8178 16.9632 29.8272 28.0407 22.4959 28.0407C15.1759 28.0407 15.1647 16.9632 22.4959 16.9632Z" fill="white"/>
</g>
<defs>
<linearGradient id="paint0_linear" x1="2.89825" y1="42.126" x2="44.721" y2="5.92889" gradientUnits="userSpaceOnUse">
<stop stop-color="#FFDD55"/>
<stop offset="0.5" stop-color="#FF543E"/>
<stop offset="1" stop-color="#C837AB"/>
</linearGradient>
<clipPath id="clip0">
<rect width="45" height="45" fill="white"/>
</clipPath>
</defs>
</svg>
