<svg width="35" height="35" viewBox="0 0 35 35" fill="none" xmlns="http://www.w3.org/2000/svg">
<circle cx="17.5" cy="17.5" r="17" stroke="#ED9737"/>
<g clip-path="url(#clip0)">
<path d="M25.3013 11.0414C24.5793 10.6526 23.774 11.4024 23.3019 11.8467C22.219 12.9019 21.3026 14.1238 20.2751 15.2345C19.1365 16.4564 18.0813 17.6782 16.915 18.8723C16.2485 19.5388 15.5265 20.2608 15.0822 21.0939C14.0825 20.1219 13.2217 19.0667 12.1109 18.2059C11.3056 17.595 9.97266 17.1507 10.0004 18.6224C10.056 20.5385 11.7499 22.5935 12.9995 23.8986C13.5271 24.454 14.2214 25.0371 15.0267 25.0649C15.9986 25.1204 16.9983 23.9541 17.5814 23.3154C18.6089 22.2047 19.442 20.955 20.3861 19.8165C21.608 18.317 22.8576 16.8451 24.0517 15.3178C24.8014 14.3737 27.1618 12.041 25.3013 11.0414ZM11.2222 18.5113C11.1945 18.5113 11.1667 18.5113 11.1112 18.5391C11.0001 18.5113 10.9168 18.4835 10.8057 18.428C10.889 18.3725 11.0278 18.4002 11.2222 18.5113Z" fill="#ED9737"/>
</g>
<defs>
<clipPath id="clip0">
<rect width="16" height="16" fill="white" transform="translate(10 10)"/>
</clipPath>
</defs>
</svg>
