<svg width="37" height="37" viewBox="0 0 37 37" fill="none" xmlns="http://www.w3.org/2000/svg">
<g clip-path="url(#clip0)">
<path d="M27.5844 18.4038C27.4055 18.3101 27.1892 18.3239 27.0235 18.4391L24.298 20.3349C24.1524 20.4363 24.0654 20.6028 24.0654 20.7804V28.9176C24.0654 29.9683 24.9202 30.8228 25.9706 30.8228C27.021 30.8228 27.8758 29.9683 27.8758 28.9176V18.8846C27.8758 18.6827 27.7634 18.4973 27.5844 18.4038Z" fill="#FFEBA1"/>
<path d="M21.5307 22.6148C21.3515 22.521 21.1355 22.5349 20.9695 22.65L18.2443 24.5459C18.0984 24.6472 18.0117 24.8138 18.0117 24.9913V27.7671C18.0117 28.8175 18.8662 29.6722 19.9169 29.6722C20.9673 29.6722 21.8221 28.8175 21.8221 27.7671V23.0955C21.8221 22.8934 21.7097 22.7082 21.5307 22.6148Z" fill="#FFEBA1"/>
<path d="M11.4145 29.6515C11.2353 29.558 11.0193 29.5716 10.8533 29.687L8.12811 31.5826C7.98245 31.6842 7.89551 31.8505 7.89551 32.0281V35.0948C7.89551 36.1452 8.74999 37 9.80067 37C10.8511 37 11.7058 36.1452 11.7058 35.0948V30.1325C11.7058 29.9304 11.5935 29.7452 11.4145 29.6515Z" fill="#FFEBA1"/>
<path d="M27.5848 18.4038C27.4059 18.3101 27.1896 18.3239 27.0239 18.4391L25.971 19.1716V28.9176C25.971 29.6214 25.5874 30.2368 25.0186 30.5665C25.2989 30.7294 25.6241 30.8228 25.971 30.8228C27.0214 30.8228 27.8762 29.9683 27.8762 28.9176V18.8846C27.8762 18.6827 27.7638 18.4973 27.5848 18.4038Z" fill="#F7D36F"/>
<path d="M21.5314 22.6148C21.3522 22.521 21.1362 22.5349 20.9702 22.65L19.9176 23.3826V27.7671C19.9176 28.4708 19.5337 29.0859 18.9648 29.4159C19.2454 29.5785 19.5706 29.6722 19.9176 29.6722C20.968 29.6722 21.8227 28.8178 21.8227 27.7671V23.0955C21.8227 22.8934 21.7104 22.7082 21.5314 22.6148Z" fill="#F7D36F"/>
<path d="M11.4152 29.6515C11.2359 29.558 11.02 29.5716 10.854 29.687L9.80136 30.4193V35.0948C9.80136 35.7983 9.41744 36.4137 8.84863 36.7437C9.12923 36.9063 9.45442 36.9997 9.80136 36.9997C10.8518 36.9997 11.7065 36.1452 11.7065 35.0948V30.1322C11.7065 29.9304 11.5942 29.7452 11.4152 29.6515Z" fill="#F7D36F"/>
<path d="M30.402 16.7499C30.3306 16.6474 30.2769 16.5362 30.2431 16.4202C30.2388 16.4067 29.8267 15.0322 28.402 13.0768C27.0538 11.2267 24.5352 8.54238 20.1933 6.26206C15.8512 3.98173 12.2119 3.43184 9.9234 3.37227C7.50617 3.30848 6.13961 3.74969 6.12606 3.75421C6.0123 3.79147 5.89233 3.81038 5.76897 3.81038C5.76642 3.81038 5.7636 3.81038 5.76163 3.81038C5.61851 3.81038 5.48103 3.86684 5.37969 3.96762C5.27722 4.06896 5.21963 4.20672 5.21907 4.35068L5.09571 33.9734C5.09486 34.1758 5.20665 34.3619 5.3859 34.4562C5.46522 34.4977 5.55189 34.5183 5.63798 34.5183C5.74695 34.5183 5.85535 34.4855 5.94794 34.4212L30.2662 17.505C30.5121 17.334 30.5731 16.9958 30.402 16.7499Z" fill="#FFDB57"/>
<path d="M5.3859 34.4561C5.46522 34.4978 5.5516 34.5182 5.63798 34.5182C5.74695 34.5182 5.85535 34.4854 5.94794 34.421L30.2662 17.5049C30.5121 17.3339 30.5728 16.9957 30.4017 16.7498C30.3306 16.6473 30.277 16.5361 30.2428 16.4201C30.2403 16.4111 30.0491 15.7756 29.4832 14.7585L5.10531 31.6606L5.09571 33.9736C5.09486 34.1757 5.20665 34.3621 5.3859 34.4561Z" fill="#F6C134"/>
<path d="M14.4405 11.554C12.5644 11.554 11.0381 13.0803 11.0381 14.9561C11.0381 16.8322 12.5644 18.3582 14.4405 18.3582C16.3166 18.3582 17.8426 16.8322 17.8426 14.9561C17.8426 13.08 16.3166 11.554 14.4405 11.554Z" fill="#F2433B"/>
<path d="M14.4405 15.9679C12.985 15.9679 11.7404 15.0488 11.2554 13.761C11.1154 14.133 11.0381 14.5356 11.0381 14.9562C11.0381 16.8323 12.5644 18.3583 14.4402 18.3583C16.3163 18.3583 17.8426 16.8323 17.8426 14.9562C17.8426 14.5359 17.7653 14.133 17.6253 13.761C17.1403 15.0488 15.896 15.9679 14.4405 15.9679Z" fill="#D83636"/>
<path d="M8.07215 17.1098C7.44886 16.4721 6.61498 16.1085 5.72408 16.0865C5.5787 16.0845 5.43727 16.1381 5.33254 16.2395C5.2281 16.3411 5.16882 16.4806 5.16825 16.6265L5.14454 22.3428C5.14369 22.4888 5.20184 22.6285 5.30573 22.731C5.40735 22.8315 5.54426 22.8877 5.68682 22.8877H5.69585C7.54032 22.8569 9.04068 21.3311 9.04068 19.4866C9.04068 18.5929 8.69657 17.7486 8.07215 17.1098Z" fill="#F2433B"/>
<path d="M5.69613 20.4632C5.69302 20.4635 5.6902 20.4635 5.68709 20.4635C5.54454 20.4635 5.40763 20.4073 5.30572 20.3068C5.22696 20.2289 5.17446 20.1292 5.15413 20.022L5.14454 22.343C5.14397 22.4889 5.20212 22.6286 5.30572 22.7311C5.40735 22.8316 5.54426 22.8878 5.68709 22.8878H5.69613C7.54032 22.857 9.04068 21.3312 9.04068 19.4868C9.04068 19.0642 8.96305 18.6532 8.81598 18.2695C8.33185 19.5291 7.11632 20.4398 5.69613 20.4632Z" fill="#D83636"/>
<path d="M22.3562 17.0627C20.4802 17.0627 18.9541 18.5891 18.9541 20.4649C18.9541 21.8458 19.7787 23.0797 21.0546 23.6087C21.1215 23.6364 21.1921 23.6499 21.2624 23.6499C21.3716 23.6499 21.4797 23.6172 21.572 23.5528L25.5232 20.8045C25.6745 20.6989 25.7623 20.5239 25.7556 20.3393C25.6887 18.5019 24.1953 17.0627 22.3562 17.0627Z" fill="#F2433B"/>
<path d="M26.818 11.1802C25.7561 10.0587 24.5275 9.00944 23.1661 8.06179C23.0356 7.97118 22.8728 7.94239 22.7195 7.98191C21.2217 8.37147 20.1758 9.7256 20.1758 11.2745C20.1758 13.1506 21.7021 14.6769 23.5779 14.6769C25.3391 14.6769 26.7949 13.3564 26.964 11.6054C26.9789 11.449 26.9259 11.294 26.818 11.1802Z" fill="#F2433B"/>
<path d="M26.3729 10.7251C25.7575 11.6109 24.7336 12.1791 23.5779 12.1791C22.1422 12.1791 20.9123 11.2848 20.4135 10.0244C20.2596 10.414 20.1758 10.8366 20.1758 11.2747C20.1758 13.1508 21.7021 14.6768 23.5779 14.6768C25.3391 14.6768 26.7949 13.3565 26.964 11.6052C26.9789 11.4491 26.9259 11.2941 26.818 11.1801C26.6729 11.0271 26.5242 10.8755 26.3729 10.7251Z" fill="#D83636"/>
<path d="M15.2931 4.52941C15.2429 4.34423 15.0989 4.19969 14.914 4.14832C13.2036 3.6752 11.5249 3.41409 9.92373 3.37231C9.80856 3.3692 9.69649 3.36779 9.5864 3.36694C9.58499 3.36694 9.58357 3.36694 9.58216 3.36694C9.39529 3.36694 9.22112 3.4632 9.12203 3.62213C8.78526 4.16158 8.60742 4.78375 8.60742 5.42087C8.60742 7.29696 10.1338 8.82301 12.0096 8.82301C13.8856 8.82301 15.412 7.29696 15.412 5.42087C15.412 5.12024 15.3719 4.82045 15.2931 4.52941Z" fill="#F2433B"/>
<path d="M15.1359 4.27268C14.6145 5.4837 13.4097 6.33395 12.0096 6.33395C10.5724 6.33395 9.34137 5.43769 8.8437 4.17529C8.68844 4.56993 8.60742 4.99167 8.60742 5.42075C8.60742 7.29684 10.1338 8.82317 12.0096 8.82317C13.8856 8.82317 15.4117 7.29684 15.4117 5.42075C15.4117 5.12039 15.3719 4.82032 15.2929 4.52928C15.2658 4.42879 15.2101 4.34071 15.1359 4.27268Z" fill="#D83636"/>
<path d="M16.7148 26.4123C16.1864 25.1349 14.9522 24.3098 13.5704 24.3098C11.6943 24.3098 10.168 25.8359 10.168 27.712C10.168 28.6556 10.5657 29.5655 11.2587 30.2077C11.3623 30.3034 11.4944 30.3522 11.6277 30.3522C11.7355 30.3522 11.8436 30.3203 11.9374 30.2551L16.5234 27.0649C16.7326 26.9196 16.8122 26.648 16.7148 26.4123Z" fill="#F2433B"/>
<path d="M33.478 15.4697C33.3924 15.1781 31.273 8.27555 21.7678 3.28074C21.7641 3.27876 21.7607 3.27679 21.7571 3.27509C12.2482 -1.71689 5.36148 0.456726 5.07298 0.551575C3.906 0.935487 3.26887 2.1976 3.65279 3.36458C3.83882 3.93 4.23374 4.389 4.765 4.65718C5.29627 4.92563 5.90037 4.9708 6.4593 4.78675C6.47172 4.78279 7.73242 4.40058 9.89559 4.45675C12.0689 4.51349 15.532 5.03939 19.6893 7.22261C23.8466 9.40583 26.2452 11.9586 27.5253 13.7155C28.7996 15.4643 29.2002 16.7196 29.2021 16.7256C29.3701 17.2966 29.7501 17.7681 30.2726 18.0532C30.6048 18.2347 30.969 18.3267 31.3371 18.3267C31.548 18.3267 31.7602 18.2965 31.9683 18.2352C32.5393 18.0676 33.0108 17.6873 33.2962 17.1648C33.581 16.6426 33.6456 16.0404 33.478 15.4697Z" fill="#FF9F34"/>
<path d="M32.1791 16.5706C32.1769 16.5633 31.6992 15.0674 30.1811 12.9836C28.6553 10.8899 25.7969 7.84791 20.843 5.24606C15.8888 2.64449 11.7621 2.01781 9.17234 1.95007C6.5942 1.88316 5.09215 2.33878 5.07719 2.34358C4.58177 2.50646 4.05671 2.51831 3.55989 2.38197C3.51783 2.70265 3.54493 3.03744 3.65276 3.36461C3.83879 3.93004 4.23371 4.38904 4.76498 4.65721C5.29624 4.92567 5.90034 4.97083 6.45927 4.78678C6.47169 4.78283 7.73239 4.40061 9.89557 4.45679C12.0689 4.51353 15.532 5.03943 19.6893 7.22265C23.8465 9.40586 26.2451 11.9586 27.5253 13.7156C28.7996 15.4643 29.2001 16.7197 29.2021 16.7256C29.3701 17.2967 29.75 17.7681 30.2725 18.0532C30.6048 18.2347 30.9689 18.3267 31.3371 18.3267C31.5479 18.3267 31.7602 18.2965 31.9682 18.2353C32.3104 18.1348 32.6167 17.9575 32.8687 17.7193C32.5472 17.4056 32.3093 17.0135 32.1791 16.5706Z" fill="#FB8F2D"/>
<path d="M21.0552 23.6086C21.1221 23.6363 21.1927 23.6498 21.263 23.6498C21.3722 23.6498 21.4804 23.6171 21.5727 23.5527L25.5238 20.8044C25.6752 20.6988 25.7629 20.5238 25.7562 20.3392C25.7231 19.4353 25.3446 18.6282 24.7498 18.0408L19.25 21.8542C19.5972 22.6325 20.2321 23.2673 21.0552 23.6086Z" fill="#D83636"/>
<path d="M11.259 30.2077C11.3623 30.3033 11.4947 30.3522 11.6276 30.3522C11.7355 30.3522 11.8439 30.3203 11.9373 30.2551L16.5234 27.0649C16.7325 26.9196 16.8121 26.6477 16.7148 26.4123C16.402 25.656 15.8416 25.0584 15.1498 24.6965L10.1953 28.1317C10.2944 28.9213 10.6693 29.6614 11.259 30.2077Z" fill="#D83636"/>
</g>
<defs>
<clipPath id="clip0">
<rect width="37" height="37" fill="white"/>
</clipPath>
</defs>
</svg>
