<svg width="33" height="33" viewBox="0 0 33 33" fill="none" xmlns="http://www.w3.org/2000/svg">
<path d="M16.5 0C7.40135 0 0 7.40135 0 16.5C0 25.5987 7.40135 33 16.5 33C25.5987 33 33 25.5974 33 16.5C33 7.40263 25.5987 0 16.5 0ZM16.5 30.4439C8.81235 30.4439 2.55615 24.1889 2.55615 16.5C2.55615 8.81106 8.81235 2.55615 16.5 2.55615C24.1876 2.55615 30.4439 8.81106 30.4439 16.5C30.4439 24.1889 24.1889 30.4439 16.5 30.4439Z" fill="#ED9737"/>
<path d="M22.8904 15.1069H17.7781V9.99466C17.7781 9.28915 17.2068 8.71655 16.5 8.71655C15.7932 8.71655 15.2219 9.28915 15.2219 9.99466V15.1069H10.1096C9.40279 15.1069 8.83148 15.6796 8.83148 16.3851C8.83148 17.0906 9.40279 17.6632 10.1096 17.6632H15.2219V22.7755C15.2219 23.481 15.7932 24.0536 16.5 24.0536C17.2068 24.0536 17.7781 23.481 17.7781 22.7755V17.6632H22.8904C23.5972 17.6632 24.1685 17.0906 24.1685 16.3851C24.1685 15.6796 23.5972 15.1069 22.8904 15.1069Z" fill="#ED9737"/>
</svg>
