<svg width="35" height="35" viewBox="0 0 35 35" fill="none" xmlns="http://www.w3.org/2000/svg">
<circle cx="17.5" cy="17.5" r="17" stroke="#ED9737"/>
<g clip-path="url(#clip0)">
<path d="M23.6204 12.479C23.545 11.5051 22.729 10.7356 21.7362 10.7356H12.8906C11.8481 10.7356 11 11.5837 11 12.6262V21.3736C11 22.4161 11.8481 23.2642 12.8906 23.2642H23.1094C24.1519 23.2642 25 22.4161 25 21.3736V14.2988C25 13.4334 24.4153 12.7025 23.6204 12.479ZM12.8906 11.6188H21.7362C22.2168 11.6188 22.6196 11.9572 22.7195 12.4082H12.8906C12.5205 12.4082 12.1751 12.5155 11.8832 12.7001V12.6262C11.8832 12.0707 12.3351 11.6188 12.8906 11.6188ZM23.1094 22.381H12.8906C12.3351 22.381 11.8832 21.9291 11.8832 21.3736V14.2988C11.8832 13.7433 12.3351 13.2914 12.8906 13.2914H23.1094C23.6649 13.2914 24.1168 13.7433 24.1168 14.2988V15.8399H21.3009C20.185 15.8399 19.2772 16.7478 19.2772 17.8636C19.2772 18.9795 20.1851 19.8873 21.3009 19.8873H24.1168V21.3736C24.1168 21.9291 23.6649 22.381 23.1094 22.381ZM24.1168 19.0041H21.3009C20.672 19.0041 20.1604 18.4925 20.1604 17.8636C20.1604 17.2347 20.672 16.7231 21.3009 16.7231H24.1168V19.0041Z" fill="#ED9737"/>
<path d="M21.4649 18.357C21.7188 18.357 21.9247 18.1512 21.9247 17.8973C21.9247 17.6433 21.7188 17.4375 21.4649 17.4375C21.211 17.4375 21.0051 17.6433 21.0051 17.8973C21.0051 18.1512 21.211 18.357 21.4649 18.357Z" fill="#ED9737"/>
</g>
<defs>
<clipPath id="clip0">
<rect width="14" height="14" fill="white" transform="translate(11 10)"/>
</clipPath>
</defs>
</svg>
